# xmcd CD database file
#
# Track frame offsets:
#	150
#	21000
#	37071
#	59798
#	75906
#	91487
#	112385
#	136755
#	150834
#	159561
#	181447
#
# Disc length: 3617 seconds
#
# Revision: 1
# Processed by: cddbd v1.5.2PL0 Copyright (c) Steve Scherf et al.
# Submitted via: CDex 1.40PlusFr
#
DISCID=890e1f0b
DTITLE=Underschool Element - Tango
DYEAR=2007
DGENRE=Rock
TTITLE0=Old Call
TTITLE1=Acariâtre
TTITLE2=Tango
TTITLE3=Autour Et Partout
TTITLE4=Real Stinky
TTITLE5=Funambule
TTITLE6=El Dragon Negro
TTITLE7=Jamais A L'abri
TTITLE8=184
TTITLE9=Noeuds
TTITLE10=Sirènes
EXTD=YEAR: 2007 ID3G: 17
EXTT0=
EXTT1=
EXTT2=
EXTT3=
EXTT4=
EXTT5=
EXTT6=
EXTT7=
EXTT8=
EXTT9=
EXTT10=
PLAYORDER=
